<svg xmlns="http://www.w3.org/2000/svg" height="800" width="1200" version="1.0" viewBox="-28.5 -13.04215 247 78.2529"><path d="M88.7222 35.4329c0-1.6774 1.301-3.1915 3.4457-3.1915 2.646 0 3.234 1.0937 3.7354 2.2683l.6335 1.5126h.4616l.25-4.41c-.8394-.2117-3.362-.5057-4.369-.5057-5.2097 0-7.3501 3.2383-7.3501 5.5478 0 5.964 9.367 5.0833 9.367 10.3314 0 2.4387-2.0168 3.487-4.1147 3.487-1.1788 0-2.146-.3764-2.6915-.8423-.3352-.2486-1.1334-1.8024-1.47-3.3136h-.4602l-.2528 4.9115c1.0922.1306 2.2668.3806 3.822.3806 6.6799 0 8.3601-3.2753 8.3601-5.7978 0-6.7224-9.367-5.3773-9.367-10.3783m23.478 12.7304c-.713.7144-1.8877 1.6376-3.1049 1.6376-.7996 0-2.102-.713-2.102-2.646V32.9587h4.8305v-1.1349h-4.8306v-4.9171h-.588c-.8394 2.5622-3.6516 4.7481-5.9653 5.2964v.7556h3.3619v7.0562c0 2.3506-.1279 5.8787-.1279 7.772 0 3.4003 2.1873 3.903 3.2767 3.903 1.892 0 3.2341-.6277 5.8845-2.7284l-.635-.7982m18.4004-9.2847c.9275-.0383 1.2215-.2912 1.2215-1.3024 0-3.6503-2.3535-6.4696-7.3104-6.4696-6.471 0-9.6625 5.3788-9.6625 10.4635 0 5.9214 3.5707 10.039 8.904 10.039 2.9017 0 5.5052-.841 7.4383-3.024l-.5909-.757c-1.2158 1.2598-2.8975 1.8919-4.7453 1.8919-4.957 0-7.2266-4.7524-7.2266-9.414 0-.4587.044-.9658.0809-1.4274zm-6.8062-6.8872c2.9841 0 4.2468 2.017 4.2468 4.832v.7528c-.632.0412-1.2172.0412-2.5651.0838l-6.677.169c.5852-3.484 2.4344-5.8376 4.9953-5.8376m15.8793 14.7473V30.101c0-2.8563.169-5.7111.2528-8.5703-2.2683.2514-4.5777.3352-6.8872.3352v.5895l2.477.7968c.2955.0838.5895.2528.6719.463.1278.2954.2968 1.8067.2968 3.5721v19.4514c0 2.0538-.169 2.771-1.4714 3.1872l-1.9743.6733v.588c1.5538-.1662 3.2355-.3338 4.9143-.3338 1.72 0 3.4855.1676 5.1658.3338v-.588l-2.0567-.6733c-1.301-.4161-1.389-1.1334-1.389-3.1872m13.0655 3.1873c-1.301-.4162-1.3862-1.1335-1.3862-3.1873V30.101c0-2.8563.169-5.7111.2528-8.5703-2.2697.2514-4.5777.3352-6.8914.3352v.5895l2.4827.7968c.2898.0838.5852.2528.6733.463.1235.2954.2897 1.8067.2897 3.5721v19.4514c0 2.0538-.1662 2.771-1.4686 3.1872l-1.9771.6733v.588c1.5567-.1662 3.2355-.3338 4.9157-.3338 1.7229 0 3.4884.1676 5.1686.3338v-.588l-2.0595-.6733m19.1559-2.0595V36.153c0-3.9116-2.94-5.0464-6.3005-5.0464-3.278 0-5.714 1.6845-7.6868 4.832l1.0482.5894c1.2627-1.8905 3.2767-3.2341 5.5904-3.2341 2.3904 0 4.2397.8792 4.2397 3.9868v2.23h-.294c-6.9284 0-11.803 2.1432-11.803 6.9326 0 3.6076 2.4771 5.1657 5.5436 5.1657 3.0665 0 4.8731-1.808 6.5108-3.9925h.0852l-.125 3.5707c1.0056-.1662 2.0595-.3338 3.065-.3338 1.0511 0 2.1405.1676 3.2342.3338v-.588c-2.6447-.5028-3.1077-.713-3.1077-2.7328zm-3.1914-3.7354c0 3.3605-2.2285 5.2935-4.9172 5.2935-2.3946 0-3.5678-1.4274-3.5678-3.6559 0-4.535 5.0805-5.126 8.485-5.126v3.4884m-88.6611 3.7354V36.153c0-3.9116-2.9429-5.0464-6.3048-5.0464-3.2767 0-5.7111 1.6845-7.6854 4.832l1.0482.5894c1.2613-1.8905 3.281-3.2341 5.5876-3.2341 2.396 0 4.241.8792 4.241 3.9868v2.23h-.291c-6.9313 0-11.8044 2.1432-11.8044 6.9326 0 3.6076 2.4799 5.1657 5.5478 5.1657 3.0636 0 4.8674-1.808 6.5065-3.9925h.0838l-.1264 3.5707c1.0113-.1662 2.0595-.3338 3.0694-.3338 1.051 0 2.1418.1676 3.234.3338v-.588c-2.646-.5028-3.1062-.713-3.1062-2.7328zm-3.1971-3.7354c0 3.3605-2.2228 5.2935-4.913 5.2935-2.3946 0-3.5706-1.4274-3.5706-3.6559 0-4.535 5.0833-5.126 8.4836-5.126v3.4884m103.7861-8.6981c0-1.6774 1.3053-3.1915 3.4429-3.1915 2.649 0 3.2355 1.0937 3.7411 2.2683l.6307 1.5126h.4602l.2542-4.41c-.8423-.2117-3.3633-.5057-4.369-.5057-5.2111 0-7.3501 3.2383-7.3501 5.5478 0 5.964 9.3656 5.0833 9.3656 10.3314 0 2.4387-2.0154 3.487-4.1175 3.487-1.1746 0-2.1419-.3764-2.6887-.8423-.3352-.2486-1.1334-1.8024-1.47-3.3136h-.4616l-.2529 4.9115c1.0923.1306 2.2711.3806 3.825.3806 6.677 0 8.3586-3.2753 8.3586-5.7978 0-6.7224-9.3685-5.3773-9.3685-10.3783" fill="#939598"/><path d="M56.6597 20.9129c-4.494 3.9315-10.891 7.5732-17.2286 11.2845-1.6007 7.6428-3.4798 14.9447-6.6997 19.9712 7.0633-3.4556 13.9732-12.6494 17.5865-20.535 3.5153.7981 7.025 2.9372 9.1526 4.8944.5525-6.0904-.8934-11.0985-2.8108-15.6151M50.21 0c-2.8265 2.5253-4.7553 6.7835-6.2764 11.8867 3.447.9147 6.6599 1.693 9.5105 2.1717C51.2312 9.4182 49.4416 5.0038 50.21 0" fill="#a7a9ac"/><path d="M0 5.2836c13.2389 1.7783 24.7975 8.8217 32.909 18.5935-5.0308 5.437-11.8086 14.699-13.388 23.7564 3.7383-5.7735 11.7702-10.6652 19.91-15.4361 1.4615-6.9795 2.6915-14.2445 4.5025-20.3107C30.314 8.2777 13.0429 2.5977 0 5.2837m53.444 8.7747c1.0525 2.2043 2.2002 4.4598 3.2157 6.8545 2.4529-2.1447 4.3377-4.3746 5.329-6.7466-2.1645.6065-5.0904.473-8.5446-.1079" fill="#d91e48"/><path d="M53.444 14.0584c-2.8505-.4787-6.0633-1.257-9.5104-2.1717-1.811 6.0662-3.041 13.3312-4.5025 20.3107 6.3375-3.7113 12.7347-7.353 17.2286-11.2845-1.0155-2.3947-2.1632-4.6502-3.2156-6.8545" fill="#a62b4d"/></svg>